<svg 
xmlns="http://www.w3.org/2000/svg" 
viewBox="0 0 64 80" 
x="0px" 
y="0px"><title>a</title>
<g data-name="06 Zero Waste">
<path d="M34.176,38.154c5.954,0,7.527-7.058,7.527-10.791a1,1,0,0,0-1.447-.894,12.211,12.211,0,0,1-4.992.982c-.223,0-.425.018-.63.032a11.255,11.255,0,0,0-2.41-5.4,5.612,5.612,0,0,1-1.465-3.258c0-.248.018-.475.035-.678s.03-.4.03-.573a1,1,0,0,0-1.315-.949C25.964,17.8,22.3,22.546,22.3,28.451c0,2.989,1.249,6.887,7.161,8.548A14.231,14.231,0,0,0,31,37.661V50.242a17.455,17.455,0,0,1-12.34-6.12,1,1,0,1,0-1.523,1.3,19.494,19.494,0,0,0,29.726,0,1,1,0,1,0-1.523-1.3A17.455,17.455,0,0,1,33,50.242V38.112C33.418,38.15,33.8,38.154,34.176,38.154Zm5.426-9.32c-.286,2.5-1.361,7.32-5.426,7.32A7.262,7.262,0,0,1,32.452,36a14.494,14.494,0,0,0,3.519-2.493A1,1,0,0,0,34.557,32.1a13.475,13.475,0,0,1-3.8,2.506v-.068c0-.09.009-.185.015-.281,0-.056.006-.112.011-.17.01-.122.023-.247.039-.374,0-.036.007-.071.012-.108.021-.158.049-.319.081-.482.012-.06.028-.121.042-.182.024-.107.049-.214.079-.321.02-.071.042-.142.064-.212.031-.1.066-.2.1-.294.027-.072.054-.144.084-.215.044-.1.093-.2.143-.3.031-.061.059-.124.093-.184a4.369,4.369,0,0,1,.281-.436c.035-.047.077-.091.115-.137.077-.094.156-.187.243-.275.053-.053.111-.1.168-.152.084-.075.173-.147.266-.215.064-.045.129-.09.2-.132a3.586,3.586,0,0,1,.336-.181c.066-.032.129-.066.2-.1a4.014,4.014,0,0,1,.594-.193l.024-.007a5.744,5.744,0,0,1,1.314-.136A15.431,15.431,0,0,0,39.6,28.834Zm-15.3-.383a11.42,11.42,0,0,1,4.475-9.241A7.806,7.806,0,0,0,30.6,23.246a9.234,9.234,0,0,1,2.07,4.644c-.016.006-.029.016-.045.023a5.442,5.442,0,0,0-.876.443c-.069.043-.139.085-.206.131a5.425,5.425,0,0,0-.745.6c-.019.018-.034.039-.053.058a5.813,5.813,0,0,0-.561.669c-.043.06-.086.119-.127.179a6.463,6.463,0,0,0-.459.792c-.013.028-.023.056-.036.084a7.6,7.6,0,0,0-.314.788c-.022.065-.044.129-.065.194-.09.289-.167.58-.227.872-.007.032-.011.063-.017.094-.053.27-.092.538-.122.8-.007.061-.014.121-.02.181-.028.285-.045.565-.05.835l0,.024C25.755,33.482,24.3,31.441,24.3,28.451Z"/>

<path d="M41.663,6.306a3.132,3.132,0,0,0-2.513.167,3.209,3.209,0,0,0-1.615,2.006,3.16,3.16,0,0,0,1.987,3.8A21.914,21.914,0,0,1,53.846,32.8,21.871,21.871,0,0,1,30.729,54.612a21.834,21.834,0,0,1-9.9-40.563L21.261,16a1.538,1.538,0,0,0,2.407.907l.794-.569a34.562,34.562,0,0,0,7.877-7.383,1.558,1.558,0,0,0-.521-2.376A31.4,31.4,0,0,0,21.154,3.12l-.627-.1a1.54,1.54,0,0,0-1.752,1.854l.61,2.721a28.191,28.191,0,0,0,9.428,53.229A29.379,29.379,0,0,0,32.046,61a27.858,27.858,0,0,0,18.752-7.2,28.192,28.192,0,0,0-9.135-47.5Zm7.8,46.011a25.968,25.968,0,0,1-20.432,6.519,26.192,26.192,0,0,1-8.444-49.6,1.527,1.527,0,0,0,.829-1.711L20.876,5.1a28.752,28.752,0,0,1,9.553,3.024A31.985,31.985,0,0,1,23.3,14.708l-.238.171L22.7,13.257a1.815,1.815,0,0,0-.989-1.327,1.455,1.455,0,0,0-1.319.063A23.815,23.815,0,1,0,40.21,10.4,1.171,1.171,0,0,1,39.467,9a1.2,1.2,0,0,1,.6-.751,1.123,1.123,0,0,1,.908-.063,26.193,26.193,0,0,1,8.485,44.132Z"/>
</g>

<!-- <text x="0" y="79" fill="#000000" font-size="5px" font-weight="bold" font-family="'Helvetica Neue', Helvetica, Arial-Unicode, Arial, Sans-serif">Created by Berkah Icon</text> -->
<!-- <text x="0" y="84" fill="#000000" font-size="5px" font-weight="bold" font-family="'Helvetica Neue', Helvetica, Arial-Unicode, Arial, Sans-serif">from the Noun Project</text> -->

</svg>